PathFileType	4	(X/Y/Z)	Run_400 02
DataRate	CameraRate	NumFrames	NumMarkers	Units	OrigDataRate	OrigDataStartFrame	OrigNumFrames
100	100	4	42	mm	100	9	128
Frame#	Time	LASI			RASI			LPSI			RPSI			RTH1			RTH2			RTH3			LTH1			LTH2			LTH3			RTB1			RTB2			RTB3			LTB1			LTB2			LTB3			RCAL			RTOE			RMT5			LCAL			LTOE			LMT5			LACR			RACR			CLAV			C7			RUA1			RUA2			RUA3			RLEL			RMEL			LUA1			LUA2			LUA3			LLEL			LMEL			RFAsuperior			RFAradius			RFAulna			LFAsuperior			LFAradius			LFAulna			
		X1	Y1	Z1	X2	Y2	Z2	X3	Y3	Z3	X4	Y4	Z4	X5	Y5	Z5	X6	Y6	Z6	X7	Y7	Z7	X8	Y8	Z8	X9	Y9	Z9	X10	Y10	Z10	X11	Y11	Z11	X12	Y12	Z12	X13	Y13	Z13	X14	Y14	Z14	X15	Y15	Z15	X16	Y16	Z16	X17	Y17	Z17	X18	Y18	Z18	X19	Y19	Z19	X20	Y20	Z20	X21	Y21	Z21	X22	Y22	Z22	X23	Y23	Z23	X24	Y24	Z24	X25	Y25	Z25	X26	Y26	Z26	X27	Y27	Z27	X28	Y28	Z28	X29	Y29	Z29	X30	Y30	Z30	X31	Y31	Z31	X32	Y32	Z32	X33	Y33	Z33	X34	Y34	Z34	X35	Y35	Z35	X36	Y36	Z36	X37	Y37	Z37	X38	Y38	Z38	X39	Y39	Z39	X40	Y40	Z40	X41	Y41	Z41	X42	Y42	Z42	

1	0.77	927.061376	988.858157	-442.594476	948.6430319999999	1006.364687	-205.46887	777.2078320000001	1055.678617	-359.904082	778.006657	1054.230475	-258.766397	957.800619	778.194941	-132.2275	1048.34579	726.211042	-157.354248	1036.218513	621.737833	-177.372621	823.782356	797.606504	-474.307024	832.289547	680.9255450000001	-459.736649	730.934689	606.123789	-447.763457	1144.045013	443.2935	-249.37365	1124.178052	356.474396	-207.207878	1173.768906	260.894847	-276.001811	609.492507	443.300836	-387.184244	562.941518	430.861079	-465.284347	422.271885	398.091421	-382.618759	1111.388248	121.883079	-304.805624	1318.340635	203.053417	-319.073876	1297.984843	139.408434	-226.939103	297.994255	462.616585	-369.595472	278.405036	245.547918	-353.557592	240.625629	285.051602	-448.988011	942.497076	1487.693616	-464.35303	911.8048659999999	1481.832499	-177.99576	1005.520926	1410.237679	-293.033563	877.751838	1512.423314	-327.586686	805.368932	1439.047921	-96.36239399999999	740.023998	1418.605941	-159.941607	703.449001	1368.813506	-85.830009	633.366651	1336.887547	-75.06063	623.701684	1325.941889	-151.317092	924.742218	1376.619076	-562.716902	870.973317	1309.04049	-554.606256	932.981893	1280.446933	-604.862545	934.7640709999999	1193.473283	-638.880089	899.625732	1159.229426	-580.857107	695.633866	1240.134934	-54.586337	784.840121	1141.448578	-102.516652	722.621684	1111.637771	-91.919428	1021.256978	1245.539229	-574.01456	1075.218239	1269.125712	-450.401633	1129.42191	1239.088134	-479.619175	
2	0.78	929.0808039999999	985.019884	-443.122848	948.9843540000001	1001.497149	-205.583421	778.6022850000001	1049.176536	-360.38271	778.994751	1048.019817	-259.226359	955.8059919999999	771.153143	-134.212473	1045.339418	717.632281	-158.180862	1029.531494	613.178626	-178.886166	829.535881	791.820772	-475.385765	840.269538	675.1537970000001	-461.118634	742.156797	598.0735519999999	-449.809845	1133.539343	430.924128	-250.582503	1111.761082	343.952216	-209.003385	1160.598895	248.122635	-277.428954	620.111233	439.694998	-388.951933	579.414308	430.142319	-465.235299	429.612541	408.664738	-382.758501	1096.732074	109.611521	-307.127995	1304.725609	189.878624	-317.521208	1281.652616	125.552381	-225.533087	310.894668	482.063911	-368.010876	274.882742	266.877637	-356.242153	241.063677	310.726541	-450.922438	941.181525	1482.466482	-463.442396	912.802484	1476.415945	-176.960439	1005.142735	1405.269705	-293.09576	876.64761	1507.600633	-326.194692	807.837295	1431.94709	-92.616418	741.238139	1411.28486	-154.630285	707.294594	1359.266579	-80.376625	637.921779	1326.235055	-68.65062399999999	626.348939	1316.123128	-144.919297	920.541862	1372.782399	-562.602383	865.391644	1306.329423	-554.296785	926.347343	1276.711295	-605.530004	925.729314	1190.057125	-640.305897	890.310375	1156.295042	-582.1831110000001	702.745488	1231.005774	-49.955811	793.245568	1134.764891	-100.392212	731.531882	1103.419158	-88.327687	1014.937271	1237.450374	-575.1523989999999	1072.433711	1255.864078	-451.649245	1124.336883	1224.816303	-483.426269	
3	0.79	931.173349	979.6660419999999	-443.285772	949.4015439999999	995.987439	-205.202342	780.1108400000001	1041.375851	-361.302578	779.95784	1040.290199	-260.464854	955.676822	764.317953	-136.914299	1043.513821	709.469937	-160.400264	1023.437312	604.013718	-181.84097	835.489873	784.714463	-476.743729	849.347027	668.431727	-463.474493	754.530678	588.8807420000001	-452.259175	1121.327609	416.788978	-252.556548	1097.124583	330.316862	-210.89135	1143.063307	233.140228	-278.90746	632.902281	435.013398	-392.006833	597.297368	429.394167	-464.458973	439.909639	417.961324	-383.017898	1076.19411	100.177238	-309.945294	1286.331009	170.020549	-316.482697	1258.035271	106.631222	-223.958755	327.554351	499.685804	-365.840948	275.670935	287.545662	-359.63157	245.542536	336.195256	-453.096695	939.255885	1476.253787	-462.591879	913.214306	1469.760208	-175.887626	1004.644017	1399.305666	-293.272551	875.143175	1501.261706	-324.445712	810.464336	1423.349628	-88.882476	742.231449	1402.188261	-148.592689	711.247072	1348.027601	-74.259789	642.904915	1313.776287	-61.390126	629.5916549999999	1304.441559	-137.707545	914.845402	1368.163881	-562.4893960000001	858.945186	1302.643086	-553.939833	918.684532	1272.373482	-606.369881	915.544955	1186.09867	-641.750342	879.848399	1152.786036	-583.6316880000001	710.407921	1220.242649	-44.723061	802.4812030000001	1127.10426	-98.124005	741.842188	1093.94463	-84.448257	1007.595051	1228.292463	-576.962552	1069.258796	1241.545856	-453.809889	1118.005913	1208.583192	-488.05768	
4	0.8	933.330722	972.830639	-443.088754	949.869538	989.670043	-204.555783	781.4933109999999	1032.541674	-362.693246	780.534657	1031.304813	-261.967087	955.359414	756.513355	-139.303241	1040.950816	699.962072	-162.888483	1017.162848	593.5482479999999	-185.338024	841.690796	776.313901	-478.271508	859.680199	660.757164	-466.951917	768.000162	578.682739	-454.909784	1109.053295	402.200528	-255.027698	1082.056553	316.85962	-212.907682	1124.08726	217.511229	-280.964037	647.6245740000001	429.427878	-395.769346	616.403447	428.813963	-463.054268	453.188319	425.870647	-383.527281	1052.518363	95.900293	-314.358245	1265.323148	143.200467	-316.986804	1229.688847	84.739439	-223.489301	347.69002	515.135726	-363.15752	280.889366	307.055112	-363.798323	254.331291	360.942771	-455.604	936.871659	1469.136778	-461.876314	913.24517	1461.924637	-174.828592	1004.145046	1392.293714	-293.605101	873.537195	1493.421187	-322.569021	813.364687	1413.245027	-85.440788	743.182123	1391.353929	-142.021148	715.574846	1335.303863	-67.663623	648.504755	1299.683356	-53.499583	633.741856	1290.824134	-129.786092	907.958536	1362.604287	-562.298801	851.8278749999999	1298.025384	-553.333494	910.159755	1267.374526	-607.3499430000001	904.37271	1181.646129	-643.276104	868.376592	1148.716532	-585.121483	718.813771	1208.044096	-39.037685	812.493777	1118.509571	-95.70220500000001	753.170309	1083.385073	-80.177965	999.321837	1218.228949	-579.466557	1065.390178	1226.594817	-457.441684	1110.331325	1190.884795	-493.600888	
